<?xml version="1.0" encoding="UTF-8"?>
<svg xmlns="http://www.w3.org/2000/svg" version="1.1" width="100" height="100" viewBox="0 0 100 100"><rect x="0" y="0" width="100" height="100" fill="#ffffff"/><g transform="scale(3.448)"><g transform="translate(0,0)"><path fill-rule="evenodd" d="M10 0L10 2L11 2L11 0ZM12 0L12 1L13 1L13 2L12 2L12 4L13 4L13 5L11 5L11 6L10 6L10 4L11 4L11 3L8 3L8 4L9 4L9 5L8 5L8 7L9 7L9 8L6 8L6 9L5 9L5 8L0 8L0 10L1 10L1 11L0 11L0 13L1 13L1 14L2 14L2 17L0 17L0 21L1 21L1 18L2 18L2 21L3 21L3 18L4 18L4 16L5 16L5 15L8 15L8 16L6 16L6 17L5 17L5 19L4 19L4 21L5 21L5 19L7 19L7 20L6 20L6 21L8 21L8 23L9 23L9 24L8 24L8 29L9 29L9 26L10 26L10 25L12 25L12 26L13 26L13 27L15 27L15 28L12 28L12 27L11 27L11 28L12 28L12 29L15 29L15 28L16 28L16 27L17 27L17 25L18 25L18 24L20 24L20 25L23 25L23 26L21 26L21 27L20 27L20 26L19 26L19 27L18 27L18 28L17 28L17 29L18 29L18 28L19 28L19 29L20 29L20 28L22 28L22 27L23 27L23 29L25 29L25 28L26 28L26 29L27 29L27 28L28 28L28 26L29 26L29 24L28 24L28 23L27 23L27 22L29 22L29 20L28 20L28 19L27 19L27 16L28 16L28 15L27 15L27 12L28 12L28 11L27 11L27 12L25 12L25 13L21 13L21 14L20 14L20 12L23 12L23 11L25 11L25 9L26 9L26 8L25 8L25 9L24 9L24 8L23 8L23 9L22 9L22 8L21 8L21 6L20 6L20 9L19 9L19 6L18 6L18 8L17 8L17 6L16 6L16 5L17 5L17 4L18 4L18 3L17 3L17 2L19 2L19 1L20 1L20 3L21 3L21 0L19 0L19 1L17 1L17 0L16 0L16 1L15 1L15 0L14 0L14 1L13 1L13 0ZM8 1L8 2L9 2L9 1ZM14 1L14 2L13 2L13 3L14 3L14 5L16 5L16 4L17 4L17 3L16 3L16 2L15 2L15 1ZM14 2L14 3L15 3L15 2ZM19 4L19 5L21 5L21 4ZM9 6L9 7L10 7L10 6ZM11 6L11 7L12 7L12 9L11 9L11 8L10 8L10 9L8 9L8 10L9 10L9 11L8 11L8 12L7 12L7 11L5 11L5 9L4 9L4 11L5 11L5 12L2 12L2 11L1 11L1 13L6 13L6 14L8 14L8 15L11 15L11 14L14 14L14 15L12 15L12 17L11 17L11 16L8 16L8 17L11 17L11 20L10 20L10 19L9 19L9 18L8 18L8 19L9 19L9 20L10 20L10 21L11 21L11 22L13 22L13 23L12 23L12 24L16 24L16 25L14 25L14 26L16 26L16 25L17 25L17 24L18 24L18 23L17 23L17 22L20 22L20 21L19 21L19 19L20 19L20 18L18 18L18 17L20 17L20 16L21 16L21 17L23 17L23 15L24 15L24 14L23 14L23 15L20 15L20 14L19 14L19 15L15 15L15 14L16 14L16 13L17 13L17 14L18 14L18 13L19 13L19 11L23 11L23 10L18 10L18 11L16 11L16 13L15 13L15 12L14 12L14 11L15 11L15 10L16 10L16 9L17 9L17 8L16 8L16 9L15 9L15 8L14 8L14 6L13 6L13 7L12 7L12 6ZM15 6L15 7L16 7L16 6ZM13 8L13 9L12 9L12 10L13 10L13 9L14 9L14 10L15 10L15 9L14 9L14 8ZM27 8L27 9L28 9L28 10L29 10L29 9L28 9L28 8ZM2 9L2 10L3 10L3 9ZM6 9L6 10L7 10L7 9ZM10 9L10 11L11 11L11 9ZM12 11L12 13L14 13L14 14L15 14L15 13L14 13L14 12L13 12L13 11ZM6 12L6 13L7 13L7 12ZM8 12L8 13L11 13L11 12ZM17 12L17 13L18 13L18 12ZM25 13L25 16L24 16L24 17L26 17L26 16L27 16L27 15L26 15L26 13ZM28 13L28 14L29 14L29 13ZM4 14L4 15L3 15L3 16L4 16L4 15L5 15L5 14ZM0 15L0 16L1 16L1 15ZM19 15L19 16L20 16L20 15ZM13 16L13 17L12 17L12 18L13 18L13 19L12 19L12 21L14 21L14 22L15 22L15 23L16 23L16 24L17 24L17 23L16 23L16 22L17 22L17 21L18 21L18 20L17 20L17 21L16 21L16 22L15 22L15 20L16 20L16 19L17 19L17 17L18 17L18 16L17 16L17 17L16 17L16 16L15 16L15 17L16 17L16 18L14 18L14 16ZM2 17L2 18L3 18L3 17ZM6 17L6 18L7 18L7 17ZM28 17L28 18L29 18L29 17ZM22 18L22 19L21 19L21 20L22 20L22 19L23 19L23 20L24 20L24 19L25 19L25 21L26 21L26 20L27 20L27 19L25 19L25 18ZM13 19L13 20L15 20L15 19ZM21 21L21 24L24 24L24 21ZM9 22L9 23L10 23L10 24L11 24L11 23L10 23L10 22ZM22 22L22 23L23 23L23 22ZM26 23L26 24L25 24L25 25L24 25L24 26L27 26L27 25L28 25L28 24L27 24L27 23ZM26 24L26 25L27 25L27 24ZM19 27L19 28L20 28L20 27ZM26 27L26 28L27 28L27 27ZM0 0L0 7L7 7L7 0ZM1 1L1 6L6 6L6 1ZM2 2L2 5L5 5L5 2ZM22 0L22 7L29 7L29 0ZM23 1L23 6L28 6L28 1ZM24 2L24 5L27 5L27 2ZM0 22L0 29L7 29L7 22ZM1 23L1 28L6 28L6 23ZM2 24L2 27L5 27L5 24Z" fill="#000000"/></g></g></svg>
