<?xml version="1.0" encoding="UTF-8"?>
<svg xmlns="http://www.w3.org/2000/svg" version="1.1" width="100" height="100" viewBox="0 0 100 100"><rect x="0" y="0" width="100" height="100" fill="#ffffff"/><g transform="scale(3.448)"><g transform="translate(0,0)"><path fill-rule="evenodd" d="M8 0L8 1L9 1L9 2L8 2L8 5L9 5L9 4L11 4L11 5L10 5L10 10L9 10L9 8L8 8L8 9L7 9L7 8L6 8L6 9L4 9L4 8L0 8L0 9L2 9L2 10L0 10L0 11L3 11L3 12L0 12L0 15L1 15L1 16L2 16L2 15L1 15L1 14L4 14L4 15L5 15L5 17L4 17L4 16L3 16L3 17L2 17L2 20L1 20L1 21L2 21L2 20L4 20L4 21L8 21L8 22L9 22L9 21L10 21L10 22L11 22L11 20L12 20L12 19L11 19L11 20L9 20L9 19L10 19L10 18L11 18L11 17L10 17L10 16L12 16L12 17L15 17L15 18L13 18L13 19L14 19L14 23L11 23L11 24L10 24L10 25L8 25L8 29L12 29L12 27L13 27L13 26L14 26L14 27L15 27L15 29L16 29L16 27L15 27L15 26L18 26L18 29L22 29L22 27L20 27L20 28L19 28L19 25L18 25L18 24L17 24L17 25L16 25L16 23L15 23L15 21L16 21L16 22L17 22L17 21L19 21L19 20L20 20L20 22L19 22L19 23L20 23L20 26L22 26L22 25L24 25L24 26L23 26L23 28L26 28L26 27L27 27L27 29L28 29L28 27L29 27L29 23L28 23L28 22L29 22L29 21L27 21L27 18L28 18L28 15L29 15L29 13L27 13L27 12L26 12L26 11L28 11L28 12L29 12L29 11L28 11L28 10L29 10L29 8L28 8L28 10L26 10L26 11L24 11L24 12L25 12L25 13L27 13L27 14L25 14L25 15L23 15L23 16L24 16L24 17L23 17L23 18L24 18L24 17L25 17L25 15L27 15L27 17L26 17L26 18L25 18L25 19L26 19L26 20L24 20L24 19L22 19L22 18L21 18L21 17L22 17L22 16L21 16L21 17L20 17L20 19L17 19L17 18L16 18L16 17L15 17L15 14L17 14L17 15L18 15L18 12L19 12L19 16L18 16L18 17L19 17L19 16L20 16L20 15L21 15L21 13L20 13L20 12L21 12L21 11L22 11L22 10L25 10L25 9L27 9L27 8L24 8L24 9L22 9L22 8L19 8L19 9L18 9L18 7L19 7L19 6L20 6L20 7L21 7L21 6L20 6L20 4L18 4L18 3L21 3L21 2L18 2L18 3L17 3L17 4L14 4L14 3L16 3L16 2L17 2L17 0L16 0L16 2L15 2L15 0L14 0L14 1L13 1L13 0L12 0L12 1L11 1L11 0L10 0L10 1L9 1L9 0ZM19 0L19 1L21 1L21 0ZM11 2L11 4L12 4L12 3L13 3L13 2ZM12 5L12 6L11 6L11 8L12 8L12 6L13 6L13 11L11 11L11 13L10 13L10 14L9 14L9 15L6 15L6 16L8 16L8 17L6 17L6 18L3 18L3 19L4 19L4 20L5 20L5 19L6 19L6 20L8 20L8 21L9 21L9 20L8 20L8 19L6 19L6 18L8 18L8 17L9 17L9 18L10 18L10 17L9 17L9 15L10 15L10 14L11 14L11 13L12 13L12 12L13 12L13 11L14 11L14 9L15 9L15 12L14 12L14 13L13 13L13 14L12 14L12 16L14 16L14 15L13 15L13 14L15 14L15 12L16 12L16 13L17 13L17 12L18 12L18 10L17 10L17 12L16 12L16 5L15 5L15 7L14 7L14 5ZM17 5L17 7L18 7L18 5ZM8 6L8 7L9 7L9 6ZM6 9L6 10L7 10L7 9ZM11 9L11 10L12 10L12 9ZM3 10L3 11L4 11L4 12L5 12L5 13L4 13L4 14L8 14L8 13L9 13L9 12L7 12L7 11L5 11L5 10ZM8 10L8 11L9 11L9 10ZM19 10L19 12L20 12L20 10ZM6 12L6 13L7 13L7 12ZM22 13L22 14L23 14L23 13ZM0 18L0 19L1 19L1 18ZM15 19L15 20L17 20L17 19ZM20 19L20 20L21 20L21 19ZM21 21L21 24L24 24L24 21ZM22 22L22 23L23 23L23 22ZM26 22L26 23L25 23L25 26L24 26L24 27L26 27L26 24L27 24L27 27L28 27L28 23L27 23L27 22ZM14 23L14 24L15 24L15 23ZM10 25L10 26L11 26L11 27L10 27L10 28L11 28L11 27L12 27L12 26L13 26L13 25L12 25L12 26L11 26L11 25ZM13 28L13 29L14 29L14 28ZM0 0L0 7L7 7L7 0ZM1 1L1 6L6 6L6 1ZM2 2L2 5L5 5L5 2ZM22 0L22 7L29 7L29 0ZM23 1L23 6L28 6L28 1ZM24 2L24 5L27 5L27 2ZM0 22L0 29L7 29L7 22ZM1 23L1 28L6 28L6 23ZM2 24L2 27L5 27L5 24Z" fill="#000000"/></g></g></svg>
