<?xml version="1.0" encoding="UTF-8"?>
<svg xmlns="http://www.w3.org/2000/svg" version="1.1" width="100" height="100" viewBox="0 0 100 100"><rect x="0" y="0" width="100" height="100" fill="#ffffff"/><g transform="scale(3.448)"><g transform="translate(0,0)"><path fill-rule="evenodd" d="M9 0L9 1L8 1L8 2L9 2L9 3L8 3L8 4L10 4L10 7L11 7L11 4L12 4L12 5L13 5L13 6L12 6L12 9L13 9L13 10L11 10L11 11L10 11L10 9L11 9L11 8L6 8L6 9L5 9L5 8L0 8L0 9L1 9L1 10L0 10L0 15L1 15L1 14L2 14L2 17L3 17L3 18L2 18L2 20L4 20L4 21L7 21L7 20L6 20L6 19L7 19L7 18L8 18L8 17L7 17L7 16L8 16L8 15L7 15L7 14L6 14L6 15L5 15L5 12L6 12L6 13L8 13L8 10L9 10L9 13L10 13L10 14L11 14L11 13L12 13L12 14L13 14L13 15L12 15L12 17L13 17L13 16L14 16L14 17L15 17L15 16L16 16L16 15L18 15L18 16L17 16L17 17L16 17L16 18L15 18L15 19L14 19L14 20L15 20L15 21L12 21L12 19L13 19L13 18L11 18L11 15L10 15L10 16L9 16L9 17L10 17L10 18L11 18L11 19L9 19L9 21L8 21L8 23L9 23L9 22L11 22L11 21L12 21L12 22L13 22L13 23L12 23L12 25L13 25L13 24L14 24L14 25L15 25L15 24L16 24L16 23L17 23L17 21L18 21L18 22L19 22L19 24L20 24L20 25L23 25L23 26L21 26L21 27L20 27L20 26L17 26L17 25L18 25L18 24L17 24L17 25L16 25L16 26L15 26L15 27L14 27L14 28L15 28L15 29L18 29L18 28L19 28L19 29L20 29L20 28L22 28L22 27L23 27L23 29L25 29L25 28L26 28L26 29L27 29L27 28L28 28L28 26L29 26L29 25L27 25L27 24L26 24L26 23L27 23L27 22L29 22L29 20L28 20L28 19L27 19L27 16L28 16L28 15L27 15L27 12L28 12L28 11L27 11L27 12L25 12L25 13L21 13L21 14L20 14L20 12L23 12L23 11L25 11L25 9L26 9L26 8L25 8L25 9L24 9L24 8L23 8L23 9L22 9L22 8L21 8L21 6L20 6L20 9L19 9L19 6L18 6L18 8L17 8L17 9L16 9L16 7L17 7L17 4L18 4L18 3L17 3L17 2L19 2L19 1L20 1L20 3L21 3L21 0L19 0L19 1L17 1L17 0L16 0L16 1L14 1L14 0L13 0L13 1L11 1L11 2L10 2L10 0ZM16 1L16 2L17 2L17 1ZM12 2L12 4L13 4L13 3L14 3L14 5L16 5L16 4L17 4L17 3L16 3L16 4L15 4L15 3L14 3L14 2ZM10 3L10 4L11 4L11 3ZM19 4L19 5L21 5L21 4ZM8 5L8 7L9 7L9 5ZM13 6L13 8L14 8L14 9L15 9L15 10L13 10L13 11L12 11L12 13L14 13L14 14L16 14L16 13L17 13L17 14L19 14L19 15L20 15L20 16L18 16L18 17L17 17L17 18L16 18L16 19L15 19L15 20L16 20L16 21L15 21L15 22L16 22L16 21L17 21L17 20L18 20L18 21L19 21L19 22L20 22L20 21L19 21L19 19L20 19L20 18L19 18L19 19L17 19L17 18L18 18L18 17L20 17L20 16L21 16L21 17L23 17L23 15L24 15L24 14L23 14L23 15L20 15L20 14L19 14L19 11L23 11L23 10L18 10L18 11L15 11L15 10L16 10L16 9L15 9L15 8L14 8L14 6ZM15 6L15 7L16 7L16 6ZM27 8L27 9L28 9L28 10L29 10L29 9L28 9L28 8ZM3 9L3 10L4 10L4 11L6 11L6 12L7 12L7 11L6 11L6 10L8 10L8 9L6 9L6 10L4 10L4 9ZM1 10L1 11L2 11L2 12L3 12L3 11L2 11L2 10ZM10 12L10 13L11 13L11 12ZM15 12L15 13L16 13L16 12ZM17 12L17 13L18 13L18 12ZM2 13L2 14L3 14L3 15L4 15L4 16L5 16L5 15L4 15L4 13ZM25 13L25 16L24 16L24 17L26 17L26 16L27 16L27 15L26 15L26 13ZM28 13L28 14L29 14L29 13ZM6 15L6 16L7 16L7 15ZM14 15L14 16L15 16L15 15ZM0 17L0 21L1 21L1 17ZM4 17L4 18L3 18L3 19L4 19L4 20L5 20L5 19L6 19L6 18L7 18L7 17ZM28 17L28 18L29 18L29 17ZM22 18L22 19L21 19L21 20L22 20L22 19L23 19L23 20L24 20L24 19L25 19L25 21L26 21L26 20L27 20L27 19L25 19L25 18ZM16 19L16 20L17 20L17 19ZM21 21L21 24L24 24L24 21ZM22 22L22 23L23 23L23 22ZM10 23L10 24L8 24L8 29L10 29L10 28L9 28L9 25L10 25L10 27L11 27L11 29L12 29L12 27L13 27L13 26L11 26L11 23ZM14 23L14 24L15 24L15 23ZM28 23L28 24L29 24L29 23ZM25 24L25 25L24 25L24 26L27 26L27 25L26 25L26 24ZM16 26L16 27L17 27L17 28L18 28L18 27L17 27L17 26ZM19 27L19 28L20 28L20 27ZM26 27L26 28L27 28L27 27ZM0 0L0 7L7 7L7 0ZM1 1L1 6L6 6L6 1ZM2 2L2 5L5 5L5 2ZM22 0L22 7L29 7L29 0ZM23 1L23 6L28 6L28 1ZM24 2L24 5L27 5L27 2ZM0 22L0 29L7 29L7 22ZM1 23L1 28L6 28L6 23ZM2 24L2 27L5 27L5 24Z" fill="#000000"/></g></g></svg>
